<?xml version="1.0" standalone="no"?>
<!DOCTYPE svg PUBLIC "-//W3C//DTD SVG 20010904//EN"
 "http://www.w3.org/TR/2001/REC-SVG-20010904/DTD/svg10.dtd">
<svg version="1.0" xmlns="http://www.w3.org/2000/svg"
 width="290.000000pt" height="290.000000pt" viewBox="0 0 290.000000 290.000000"
 preserveAspectRatio="xMidYMid meet">
<metadata>
Created by potrace 1.14, written by Peter Selinger 2001-2017
</metadata>
<g transform="translate(0.000000,290.000000) scale(0.100000,-0.100000)"
fill="#000000" stroke="none">
<path d="M2679 2189 c-8 -5 -22 -9 -31 -9 -10 0 -30 -10 -44 -22 -14 -13 -35
-23 -47 -23 -16 0 -21 -5 -19 -19 2 -11 -1 -15 -8 -11 -13 8 -50 -22 -50 -42
0 -7 -9 -22 -21 -34 -11 -11 -18 -27 -15 -35 4 -11 0 -14 -17 -12 -12 2 -21 9
-20 16 2 6 -4 12 -12 12 -25 0 -78 37 -65 45 9 6 9 10 -1 16 -9 5 -16 2 -21
-9 -5 -14 -7 -13 -7 4 -1 26 -28 39 -47 23 -11 -9 -14 -8 -14 5 0 10 -4 15 -9
12 -12 -8 -42 4 -36 13 2 4 -3 8 -11 8 -8 0 -13 -6 -10 -12 2 -7 0 -18 -5 -26
-7 -11 -10 -10 -15 7 -4 15 -14 21 -32 21 -15 0 -21 -2 -14 -4 17 -6 15 -23
-3 -23 -8 0 -15 5 -15 11 0 5 -5 7 -12 3 -7 -4 -28 -7 -46 -6 -28 2 -33 0 -28
-13 3 -9 6 -19 6 -21 0 -3 5 -2 10 1 6 3 10 1 10 -5 0 -7 6 -10 14 -7 7 3 19
0 25 -6 6 -6 11 -8 11 -5 0 4 24 -3 53 -13 28 -11 61 -22 72 -24 11 -3 28 -16
38 -30 10 -14 25 -25 33 -25 8 0 14 -4 14 -9 0 -5 11 -12 25 -15 14 -4 25 -12
25 -20 0 -7 10 -21 23 -30 15 -12 17 -16 5 -12 -10 3 -18 1 -18 -5 0 -6 -8 -9
-17 -7 -10 2 -25 -3 -33 -12 -19 -19 -60 -24 -60 -7 0 8 -7 14 -15 14 -9 0
-14 -6 -11 -14 4 -9 1 -11 -5 -7 -6 4 -15 0 -20 -7 -6 -10 -9 -11 -9 -1 0 6
-4 12 -9 12 -6 0 -8 -10 -6 -22 4 -22 4 -22 -10 -4 -13 17 -15 18 -15 3 0 -9
-3 -17 -7 -18 -36 -3 -72 -19 -45 -19 7 0 12 -7 12 -15 0 -8 -7 -15 -16 -15
-9 0 -12 -5 -8 -12 4 -7 3 -8 -4 -4 -6 4 -9 13 -6 20 3 8 1 17 -5 21 -7 3 -11
-3 -11 -15 0 -12 -4 -19 -9 -16 -5 4 -7 -3 -4 -14 4 -16 2 -19 -13 -13 -14 5
-16 3 -11 -11 4 -11 1 -19 -11 -23 -9 -4 -27 -14 -39 -23 l-21 -16 21 -14 c20
-12 21 -12 9 3 -12 14 -11 16 10 15 47 -2 69 2 63 12 -3 6 5 10 19 10 14 0 29
7 34 16 5 9 15 14 23 12 8 -3 26 3 41 14 18 12 35 17 52 12 18 -4 26 -2 26 7
0 11 3 11 10 -1 5 -8 10 -10 10 -4 0 7 11 9 25 6 15 -2 25 0 25 7 0 7 5 9 10
6 6 -3 10 -1 10 6 0 9 3 9 14 0 12 -10 20 -9 40 4 14 10 26 14 26 9 0 -4 14 8
31 27 l31 34 -7 -32 c-7 -34 10 -48 21 -18 5 12 10 13 20 4 11 -9 14 -9 14 0
0 7 4 10 9 7 5 -4 12 0 14 6 4 10 6 10 6 0 1 -9 6 -10 20 -2 23 12 35 -1 27
-28 -4 -11 2 -21 18 -28 21 -10 24 -9 19 5 -4 11 -1 10 10 -4 8 -11 13 -23 11
-27 -10 -16 9 -7 22 10 12 16 13 15 8 -4 -3 -12 0 -25 7 -29 7 -5 10 -4 6 3
-5 7 1 6 17 -1 13 -6 22 -16 19 -23 -2 -6 3 -17 12 -24 11 -9 15 -9 15 -1 0 7
4 10 9 6 6 -3 6 6 1 24 -4 16 -6 32 -2 35 3 3 0 6 -6 6 -6 0 -9 6 -6 14 3 7
-1 20 -9 27 -8 8 -19 24 -26 37 -6 12 -17 21 -23 19 -17 -3 -32 64 -17 74 7 4
17 5 21 3 4 -3 8 -2 8 3 0 4 11 9 25 9 14 1 25 -2 25 -8 0 -5 -4 -7 -9 -3 -5
3 -12 1 -15 -4 -4 -5 1 -8 10 -7 8 1 20 9 25 17 7 12 9 12 9 -1 0 -9 3 -11 8
-5 8 12 44 16 37 5 -3 -4 3 -18 14 -31 l18 -22 5 27 c8 43 -38 99 -98 118 -31
10 -51 12 -55 6 -4 -6 -19 -3 -39 7 -18 9 -30 12 -26 7 3 -5 -9 -9 -27 -10
-17 0 -33 -6 -35 -12 -3 -8 -8 -8 -17 0 -10 8 -10 16 -1 35 11 26 26 33 26 14
0 -8 5 -7 15 1 9 7 14 19 11 27 -3 8 -2 12 3 9 5 -3 12 1 15 10 4 11 13 14 27
11 15 -4 19 -2 15 8 -3 9 3 15 17 17 14 2 21 10 21 21 -1 9 2 17 7 17 5 0 9
-5 9 -12 0 -6 7 -3 15 8 9 12 14 14 15 5 0 -7 6 -11 14 -8 7 3 18 1 23 -4 7
-7 12 -5 17 6 3 9 2 13 -4 10 -6 -3 -10 0 -10 8 0 8 -13 20 -30 26 -16 5 -30
8 -30 6 0 -3 -11 -1 -23 4 -14 6 -30 6 -38 0z m16 -69 c-3 -5 -12 -10 -18 -10
-7 0 -6 4 3 10 19 12 23 12 15 0z m-57 -243 c-1 -2 4 -12 12 -23 14 -18 14
-18 -2 -5 -10 7 -18 20 -18 29 0 8 3 13 6 10 3 -4 4 -8 2 -11z"/>
<path d="M1295 2013 c-89 -12 -280 -49 -425 -84 -234 -57 -395 -79 -585 -80
l-160 -1 85 -28 c201 -66 472 -111 684 -113 141 -2 312 8 341 19 8 3 15 1 15
-5 0 -6 -6 -11 -13 -11 -20 0 -50 -36 -68 -82 -13 -34 -24 -43 -75 -65 -32
-13 -68 -27 -79 -30 -64 -19 -144 -136 -144 -210 0 -15 -3 -50 -8 -78 -5 -27
-8 -70 -8 -95 0 -42 2 -45 28 -48 16 -2 25 -8 21 -14 -10 -17 184 -1 283 22
46 11 94 22 109 24 14 3 41 10 60 16 20 7 36 10 38 8 5 -7 44 -103 43 -104 -1
-1 -26 -5 -56 -8 -81 -10 -246 -48 -450 -106 -101 -28 -190 -53 -199 -55 -10
-2 -57 -13 -107 -25 -120 -28 -293 -49 -442 -52 -67 -2 -116 -6 -110 -9 13 -7
185 -44 257 -55 25 -3 54 -8 65 -10 166 -28 559 -40 710 -23 136 16 286 47
477 100 299 83 357 98 483 120 123 22 276 35 378 34 31 -1 57 2 57 5 0 11
-230 58 -356 74 -148 18 -322 27 -461 24 l-162 -3 29 30 c17 17 30 34 30 37 0
3 -17 -12 -39 -33 -50 -51 -96 -55 -106 -9 -4 16 -11 32 -16 35 -5 4 -9 14 -9
24 0 14 12 22 45 30 48 12 54 21 30 41 -11 9 -22 9 -51 0 -45 -15 -57 -5 -44
40 6 19 10 42 9 50 0 8 -7 -7 -14 -34 -7 -26 -11 -54 -9 -61 5 -12 -3 -14 -91
-31 -90 -16 -299 -41 -308 -36 -8 4 0 99 10 115 11 18 89 45 148 51 33 4 93
11 133 17 41 6 84 8 97 5 15 -4 30 0 40 10 20 20 15 36 -13 49 -12 5 -22 15
-22 21 0 19 -42 40 -95 48 -46 6 -84 32 -85 58 0 12 59 19 165 21 l100 2 0 30
0 30 -105 0 c-58 0 -122 -4 -142 -7 -27 -5 -38 -3 -38 5 2 26 36 82 57 93 13
6 31 17 40 25 13 11 35 14 76 11 47 -3 57 -7 57 -22 0 -24 23 -32 99 -36 38
-2 68 -9 73 -16 7 -10 9 -9 5 2 -4 17 -70 31 -104 23 -29 -7 -63 13 -63 37 0
17 -7 20 -42 21 -24 1 -34 3 -23 6 11 2 106 24 210 48 284 65 384 79 587 79
98 1 178 2 178 3 0 3 -170 53 -245 72 -192 47 -323 63 -540 66 -115 1 -223 0
-240 -2z m-95 -522 c16 -23 31 -31 68 -36 26 -4 57 -11 70 -17 26 -13 29 -38
5 -39 -93 -3 -198 -21 -271 -46 -24 -8 -46 -13 -48 -11 -8 9 56 144 76 160 34
28 75 23 100 -11z"/>
<path d="M2485 1733 c-56 -12 -76 -28 -105 -82 -40 -72 -53 -134 -31 -148 14
-9 14 -19 -2 -104 -22 -120 -28 -209 -15 -209 6 0 7 -7 4 -16 -7 -19 19 -54
40 -54 7 0 29 7 48 16 31 15 33 19 25 42 -19 50 12 241 61 375 21 61 50 160
50 176 0 11 -36 13 -75 4z"/>
<path d="M1591 1638 c-1 -14 -10 -18 -47 -18 -42 0 -45 -1 -39 -22 11 -36 16
-38 105 -45 62 -5 78 -8 61 -15 -13 -4 -28 -5 -33 -1 -6 3 -8 2 -5 -4 3 -5 -2
-17 -12 -25 -19 -16 -46 -112 -36 -128 3 -4 1 -21 -5 -36 -5 -16 -11 -64 -14
-107 -3 -62 -1 -79 10 -84 19 -7 61 22 83 57 l17 29 12 -31 c13 -36 28 -30 42
20 20 72 7 127 -17 75 -10 -21 -10 -23 3 -13 18 16 19 -7 3 -64 -9 -34 -12
-37 -21 -22 -19 34 -3 137 37 236 21 52 38 96 39 97 0 0 39 -5 86 -12 169 -27
250 -66 250 -120 0 -13 -6 -29 -12 -34 -7 -6 -35 -29 -63 -52 -64 -54 -213
-126 -290 -140 -61 -11 -141 -50 -128 -62 21 -22 189 7 317 54 45 16 126 36
181 44 113 16 175 32 175 44 0 21 -28 31 -56 21 -28 -10 -179 -40 -199 -40 -5
0 20 20 56 44 63 43 138 118 140 140 0 6 2 19 4 28 5 28 -34 69 -91 94 -85 38
-289 70 -471 75 -57 1 -73 5 -76 18 -4 14 -5 13 -6 -1z"/>
<path d="M44 1502 c-28 -6 -30 -10 -23 -29 5 -13 18 -24 29 -24 11 -1 25 -3
30 -4 6 -1 38 -3 73 -4 l62 -1 -42 -19 c-57 -26 -69 -51 -78 -159 -2 -29 -6
-56 -9 -60 -2 -4 -6 -41 -7 -82 -2 -68 -1 -75 18 -78 30 -5 80 48 93 99 19 75
58 192 79 240 l21 46 52 -8 c108 -18 164 -32 214 -54 95 -42 92 -81 -10 -158
-102 -78 -168 -108 -341 -156 -45 -13 -82 -37 -72 -48 21 -20 238 22 346 67
25 11 84 24 130 30 46 5 110 17 143 26 54 15 57 18 43 34 -14 15 -19 15 -83
-1 -38 -9 -91 -20 -118 -24 l-49 -7 70 52 c118 89 153 143 125 195 -26 49
-145 91 -340 119 -62 9 -324 15 -356 8z"/>
</g>
</svg>
